# AST/ASF file generated using VICON BodyLanguage
# -----------------------------------------------
:version 1.10
:name VICON
:units
  mass 1.0
  length 0.45
  angle deg
:documentation
   .ast/.asf automatically generated from VICON data using
   VICON BodyBuilder and BodyLanguage model FoxedUp or BRILLIANT.MOD
:root
   order TX TY TZ RX RY RZ
   axis XYZ
   position 0 0 0  
   orientation 0 0 0 
:bonedata
  begin
     id 1 
     name lhipjoint
     direction 0.734343 -0.627749 0.258209 
     length 2.5437 
     axis 0 0 0  XYZ
  end
  begin
     id 2 
     name lfemur
     direction 0.34202 -0.939693 0  
     length 6.7391  
     axis 0 0 20  XYZ
    dof rx ry rz
    limits (-160.0 20.0)
           (-70.0 70.0)
           (-60.0 70.0)
  end
  begin
     id 3 
     name ltibia
     direction 0.34202 -0.939693 0   
     length 7.21536   
     axis 0 0 20   XYZ
    dof rx
    limits (-10.0 170.0)
  end
  begin
     id 4 
     name lfoot
     direction 0.0489572 -0.134509 0.989702   
     length 1.61313   
     axis -90 7.62852e-016 20   XYZ
    dof rx rz
    limits (-45.0 90.0)
           (-70.0 20.0)
  end
  begin
     id 5 
     name ltoes
     direction 1.53451e-011 -4.21692e-011 1   
     length 0.823104   
     axis -90 7.62852e-016 20   XYZ
    dof rx
    limits (-90.0 20.0)
  end
  begin
     id 6 
     name rhipjoint
     direction -0.746398 -0.615468 0.253157   
     length 2.59446  
     axis 0 0 0  XYZ 
  end
  begin
     id 7 
     name rfemur
     direction -0.34202 -0.939693 0   
     length 6.7075   
     axis 0 0 -20   XYZ
    dof rx ry rz
    limits (-160.0 20.0)
           (-70.0 70.0)
           (-70.0 60.0)
  end
  begin
     id 8 
     name rtibia
     direction -0.34202 -0.939693 0   
     length 7.27262   
     axis 0 0 -20   XYZ
    dof rx
    limits (-10.0 170.0)
 end
 begin
     id 9 
     name rfoot
     direction -0.0455203 -0.125066 0.991104   
     length 1.91095  
     axis -90 -7.62852e-016 -20   XYZ
    dof rx rz
    limits (-45.0 90.0)
           (-20.0 70.0)
  end
  begin
     id 10 
     name rtoes
     direction -1.53601e-011 -4.21913e-011 1   
     length 0.969037   
     axis -90 -7.62852e-016 -20   XYZ
    dof rx
    limits (-90.0 20.0)
  end
  begin
     id 11 
     name lowerback
     direction 0.0181546 0.999122 -0.0377542   
     length 1.99916   
     axis 0 0 0   XYZ
    dof rx ry rz
    limits (-20.0 45.0)
           (-30.0 30.0)
           (-30.0 30.0)
  end
  begin
     id 12 
     name upperback
     direction 0.0203486 0.99589 0.0882534   
     length 1.951   
     axis 0 0 0   XYZ
    dof rx ry rz
    limits (-20.0 45.0)
           (-30.0 30.0)
           (-30.0 30.0)
  end
  begin
     id 13 
     name thorax
     direction 0.0131685 0.994241 0.106355   
     length 1.97461   
     axis 0 0 0   XYZ
    dof rx ry rz
    limits (-20.0 45.0)
           (-30.0 30.0)
           (-30.0 30.0)
  end
  begin
     id 14 
     name lowerneck
     direction -0.0281395 0.999325 0.023617   
     length 1.7959   
     axis 0 0 0   XYZ
    dof rx ry rz
    limits (-20.0 45.0)
           (-30.0 30.0)
           (-30.0 30.0)
  end
  begin
     id 15 
     name upperneck
     direction 0.0288721 0.991984 -0.123019   
     length 1.79917   
     axis 0 0 0   XYZ
    dof rx ry rz
    limits (-20.0 45.0)
           (-30.0 30.0)
           (-30.0 30.0)
  end
  begin
     id 16
     name head
     direction 0.0133797 0.998944 -0.0439492  
     length 1.80902  
     axis 0 0 0   XYZ
    dof rx ry rz
    limits (-20.0 45.0)
           (-30.0 30.0)
           (-30.0 30.0)
  end
  begin
     id 17 
     name lclavicle
     direction 0.919195 0.377107 0.113449  
     length 3.17815  
     axis 0 0 0   XYZ
    dof ry rz
    limits (-20.0 10.0)
           (0.0 20.0)
  end
  begin
     id 18 
     name lhumerus
     direction 1 -4.48959e-011 2.13129e-027   
     length 4.84137   
     axis 180 -30 -90   XYZ
    dof rx ry rz
    limits (-60.0 90.0)
           (-90.0 90.0)
           (-90.0 90.0)
  end
  begin
     id 19
     name lradius
     direction 1 -4.48957e-011 -6.30627e-028   
     length 3.2452   
     axis 180 -30 -90   XYZ
    dof rx
    limits (-10.0 170.0)
  end
  begin
     id 20
     name lwrist
     direction 1 -4.4901e-011 9.13299e-027   
     length 1.6226   
     axis -6.84618e-015 90 90   XYZ
    dof ry
    limits (-180.0 0.0)
 end
  begin
     id 21 
     name lhand
     direction 1 -4.48816e-011 1.82293e-026   
     length 0.521221   
     axis -1.16502e-014 90 90   XYZ
    dof rx rz
    limits (-90.0 90.0)
           (-45.0 45.0)
  end
  begin
     id 22 
     name lfingers
     direction 1 -4.49108e-011 3.65687e-026   
     length 0.420221   
     axis -2.33008e-014 90 90   XYZ
    dof rx
    limits (0.0 90.0)
  end
  begin
     id 23
     name lthumb
     direction 0.707107 -6.34943e-011 0.707107   
     length 0.603356   
     axis -90 45 5.69224e-014   XYZ
    dof rx rz
    limits (-45.0 45.0)
           (-45.0 45.0)
  end
  begin
     id 24 
     name rclavicle
     direction -0.90847 0.38596 0.160368   
     length 3.12973  
     axis 0 0 0   XYZ 
    dof ry rz
    limits (-10.0 20.0)
           (-20.0 0.0)
  end
  begin
     id 25 
     name rhumerus
     direction -1 -4.48974e-011 4.47268e-028  
     length 4.72284   
     axis 180 30 90   XYZ
    dof rx ry rz
    limits (-90.0 60.0)
           (-90.0 90.0)
           (-90.0 90.0)
  end
  begin
     id 26 
     name rradius
     direction -1 -4.48969e-011 3.43203e-027   
     length 3.23459   
     axis 180 30 90   XYZ
    dof rx
    limits (-10.0 170.0)
  end
  begin
     id 27 
     name rwrist
     direction -1 -4.48969e-011 9.12911e-027   
     length 1.6173   
     axis -6.84618e-015 -90 -90   XYZ
    dof ry
    limits (-180.0 0.0)
  end
  begin
     id 28
     name rhand
     direction -1 -4.49194e-011 1.83006e-026   
     length 0.307416   
     axis -1.16502e-014 -90 -90   XYZ
    dof rx rz
    limits (-90.0 90.0)
           (-45.0 45.0)
  end
  begin
     id 29
     name rfingers
     direction -1 -4.48423e-011 3.63103e-026   
     length 0.247847   
     axis -2.33008e-014 -90 -90   XYZ
    dof rx
    limits (0.0 90.0)
  end
  begin
     id 30
     name rthumb
     direction -0.707107 -6.34802e-011 0.707107   
     length 0.35586   
     axis -90 -45 -5.69224e-014   XYZ
    dof rx rz
    limits (-45.0 45.0)
           (-45.0 45.0)
  end
:hierarchy
  begin
    root lhipjoint rhipjoint lowerback
    lhipjoint lfemur
    lfemur ltibia
    ltibia lfoot
    lfoot ltoes
    rhipjoint rfemur
    rfemur rtibia
    rtibia rfoot
    rfoot rtoes
    lowerback upperback
    upperback thorax
    thorax lowerneck lclavicle rclavicle
    lowerneck upperneck
    upperneck head
    lclavicle lhumerus
    lhumerus lradius
    lradius lwrist
    lwrist lhand lthumb
    lhand lfingers
    rclavicle rhumerus
    rhumerus rradius
    rradius rwrist
    rwrist rhand rthumb
    rhand rfingers
  end

#!OML:ASF \\Waltz\H\Terrain\Patient Classification 1\Animal1\Tuesday\Animal1.ASF
:FULLY-SPECIFIED
:DEGREES
317
root -1.48027 16.116 -1.03225 27.4237 -15.1329 2.26543
lowerback 35.5209 -1.8885 2.1994
upperback 5.85941 -1.30397 2.48039
thorax -11.2902 -0.682696 2.03214
lowerneck -10.4886 -3.2946 -7.25655
upperneck -16.5376 -2.35961 16.7231
head -2.74803 -1.41953 6.43484
rclavicle 1.15295e-014 -3.18055e-015
rhumerus 32.0102 13.967 -50.9475
rradius 101.336
rwrist -11.4784
rhand -0.00329421 1.09616
rfingers 7.12502
rthumb 25.5872 -27.205
lclavicle 1.15295e-014 -3.18055e-015
lhumerus 15.0996 -52.08 65.8494
lradius 114.916
lwrist -20.4633
lhand 43.6793 78.5145
lfingers 7.12502
lthumb 65.3659 85.0702
rfemur -58.7488 13.0786 13.6401
rtibia 41.4121
rfoot -3.90986 -13.6061
rtoes -4.83304
lfemur -67.075 -19.986 -0.288172
ltibia 67.4634
lfoot 25.6335 -8.115
ltoes 7.00254
318
root -1.47598 16.106 -1.04332 27.1269 -16.3291 2.7169
lowerback 35.7144 -1.34119 1.43428
upperback 5.90076 -0.974013 1.97493
thorax -11.3229 -0.515328 1.76349
lowerneck -10.2516 -3.53258 -7.52332
upperneck -16.6096 -2.62302 17.1764
head -2.75149 -1.56248 6.62697
rclavicle 3.57812e-015 -2.60408e-014
rhumerus 34.429 11.9741 -51.3464
rradius 97.0051
rwrist -4.94171
rhand -8.82608 7.56103
rfingers 7.12502
rthumb 17.1139 -21.7052
lclavicle 3.57812e-015 -2.60408e-014
lhumerus 15.3126 -52.036 66.0554
lradius 116.784
lwrist -21.0939
lhand 48.7091 77.9628
lfingers 7.12502
lthumb 69.0848 76.4134
rfemur -58.951 13.5278 12.9977
rtibia 41.6058
rfoot -3.91718 -13.4651
rtoes -5.60398
lfemur -66.5305 -19.7817 -1.01005
ltibia 67.3809
lfoot 25.7858 -7.26351
ltoes 10.4354
319
root -1.47229 16.12 -1.05602 26.9 -17.4552 3.46767
lowerback 35.8157 -0.807092 0.665089
upperback 5.81016 -0.671091 1.40171
thorax -11.4695 -0.357842 1.43498
lowerneck -10.0331 -3.86007 -7.81676
upperneck -16.3886 -3.04645 17.5645
head -2.64424 -1.76885 6.78789
rclavicle -3.06128e-014 -1.51076e-014
rhumerus 34.8521 10.7065 -52.6458
rradius 93.3807
rwrist 5.68933
rhand -12.2088 12.4475
rfingers 7.12502
rthumb 13.8558 -17.071
lclavicle -3.06128e-014 -1.51076e-014
lhumerus 15.6495 -51.5821 66.4553
lradius 118.241
lwrist -23.754
lhand 47.2926 74.8879
lfingers 7.12502
lthumb 68.0875 75.9047
rfemur -59.2014 13.6942 12.1317
rtibia 41.7325
rfoot -3.81101 -13.284
rtoes -6.87359
lfemur -66.1065 -19.9502 -1.79034
ltibia 67.1814
lfoot 25.1179 -8.84361
ltoes 3.31938
320
root -1.47199 16.1291 -1.07819 26.7245 -18.3372 3.9776
lowerback 35.9911 -0.284955 0.20172
upperback 5.70238 -0.260821 0.921793
thorax -11.6646 -0.161786 1.00045
lowerneck -9.92395 -4.18986 -8.02468
upperneck -16.0873 -3.50005 17.7826
head -2.49887 -1.98127 6.87194
rclavicle 3.49861e-014 -3.97569e-015
rhumerus 35.3709 8.52293 -53.5588
rradius 90.0844
rwrist 16.9954
rhand -7.55709 12.7285
rfingers 7.12502
rthumb 18.335 -16.4274
lclavicle 3.49861e-014 -3.97569e-015
lhumerus 16.3407 -50.0397 66.8666
lradius 119.426
lwrist -27.8296
lhand 50.1583 69.104
lfingers 7.12502
lthumb 70.0549 64.6631
rfemur -59.4088 13.9812 11.5044
rtibia 41.7995
rfoot -3.59267 -13.2556
rtoes -7.47658
lfemur -65.764 -19.8935 -2.33931
ltibia 66.9691
lfoot 24.2572 -10.1658
ltoes -3.64243
321
root -1.48373 16.1321 -1.10057 26.6619 -19.0359 4.40625
lowerback 35.9718 0.199947 -0.479329
upperback 5.62345 0.0498916 0.653709
thorax -11.7517 -0.00182741 0.946416
lowerneck -9.8284 -4.34033 -8.17232
upperneck -15.9089 -3.72792 17.6698
head -2.43301 -2.07761 6.8486
rclavicle -3.18055e-015 -1.90833e-014
rhumerus 35.2679 7.17979 -54.1727
rradius 88.0611
rwrist 24.6905
rhand 0.764728 12.9997
rfingers 7.12502
rthumb 26.3226 -15.1937
lclavicle -3.18055e-015 -1.90833e-014
lhumerus 16.8269 -46.8213 67.7921
lradius 120.303
lwrist -32.1599
lhand 53.2897 65.6999
lfingers 7.12502
lthumb 71.9401 53.9829
rfemur -59.7174 14.4978 10.7994
rtibia 41.8332
rfoot -3.72032 -13.4968
rtoes -5.73966
lfemur -65.5356 -19.5918 -2.80458
ltibia 66.6899
lfoot 24.0606 -10.1742
ltoes -4.52086
322
root -1.50238 16.1309 -1.11714 26.7521 -19.5757 4.90263
lowerback 35.6719 0.683444 -1.31752
upperback 5.52809 0.318821 0.468071
thorax -11.7534 0.146786 1.08153
lowerneck -9.83092 -4.42901 -8.17554
upperneck -15.603 -3.8925 17.517
head -2.32788 -2.14075 6.78327
rclavicle 8.74653e-015 4.33351e-014
rhumerus 34.6845 7.55329 -53.36
rradius 86.724
rwrist 23.7612
rhand 6.34916 13.8517
rfingers 7.12502
rthumb 31.656 -13.4226
lclavicle 8.74653e-015 4.33351e-014
lhumerus 17.3355 -42.8707 69.0642
lradius 120.875
lwrist -36.0488
lhand 43.6317 54.5047
lfingers 7.12502
lthumb 65.3286 61.1248
rfemur -60.207 14.9191 9.98064
rtibia 41.9259
rfoot -3.66439 -13.7953
rtoes -4.99339
lfemur -65.516 -19.2669 -3.23717
ltibia 66.3722
lfoot 24.5171 -8.88226
ltoes 1.41044
323
root -1.52231 16.1202 -1.13041 26.9978 -19.9035 5.38964
lowerback 35.1493 1.12273 -2.05956
upperback 5.50998 0.586611 0.316301
thorax -11.7027 0.292902 1.20923
lowerneck -9.90143 -4.57914 -8.30389
upperneck -15.3122 -4.08989 17.7922
head -2.18856 -2.22534 6.87647
rclavicle -7.95139e-015 1.82882e-014
rhumerus 33.6205 9.59565 -51.0743
rradius 86.377
rwrist 15.2907
rhand 10.401 11.9532
rfingers 7.12502
rthumb 35.5065 -14.4831
lclavicle -7.95139e-015 1.82882e-014
lhumerus 18.2826 -38.8455 70.206
lradius 121.162
lwrist -39.2797
lhand 50.5402 58.4498
lfingers 7.12502
lthumb 70.3012 53.199
rfemur -60.8667 15.1014 9.21543
rtibia 42.0666
rfoot -3.32971 -14.1174
rtoes -5.9275
lfemur -65.6944 -18.9853 -3.54844
ltibia 66.0755
lfoot 24.7027 -7.86459
ltoes 7.52104
324
root -1.54067 16.1075 -1.1376 27.2115 -19.8191 5.71559
lowerback 34.8442 1.3181 -2.48111
upperback 5.46216 0.682001 0.261317
thorax -11.6449 0.351524 1.33856
lowerneck -9.99171 -4.64737 -8.27667
upperneck -15.1827 -4.17113 18.0471
head -2.11356 -2.26548 6.9451
rclavicle -2.38542e-014 2.70347e-014
rhumerus 32.0589 12.8657 -48.0062
rradius 87.9368
rwrist 3.74637
rhand 13.4441 7.6257
rfingers 7.12502
rthumb 38.3851 -18.0677
lclavicle -2.38542e-014 2.70347e-014
lhumerus 19.4593 -35.0128 71.0409
lradius 120.747
lwrist -41.1648
lhand 47.2046 58.1955
lfingers 7.12502
lthumb 68.0241 59.3638
rfemur -61.3612 15.1489 8.6888
rtibia 42.1831
rfoot -3.18801 -14.5276
rtoes -6.89221
lfemur -65.8542 -18.843 -3.71358
ltibia 65.8275
lfoot 24.7557 -7.20736
ltoes 12.567
325
root -1.55565 16.1079 -1.13785 27.2991 -19.216 5.6174
lowerback 34.8715 1.17531 -2.30116
upperback 5.44566 0.587568 0.375742
thorax -11.6717 0.305812 1.40279
lowerneck -10.1185 -4.57702 -8.19899
upperneck -15.0625 -4.07263 18.1956
head -2.06589 -2.21386 6.97738
rclavicle -1.51076e-014 -7.95139e-016
rhumerus 30.4572 16.3812 -45.2756
rradius 90.1265
rwrist -6.51118
rhand 17.2884 2.41324
rfingers 7.12502
rthumb 42.0011 -22.1764
lclavicle -1.51076e-014 -7.95139e-016
lhumerus 20.34 -30.9877 72.0578
lradius 119.718
lwrist -43.591
lhand 39.6026 53.6832
lfingers 7.12502
lthumb 62.065 65.096
rfemur -61.322 15.1109 8.80405
rtibia 42.1944
rfoot -3.08995 -14.8763
rtoes -7.87933
lfemur -65.8796 -18.7669 -3.51416
ltibia 65.6204
lfoot 25.0784 -6.63862
ltoes 17.7684
326
root -1.56537 16.1224 -1.13764 27.294 -18.3547 5.31013
lowerback 35.0895 0.831741 -1.79357
upperback 5.42749 0.379609 0.648271
thorax -11.7706 0.199568 1.50682
lowerneck -10.2545 -4.4722 -8.40461
upperneck -14.948 -3.90662 18.3275
head -2.02092 -2.11242 7.05725
rclavicle -2.38542e-014 3.49861e-014
rhumerus 30.3204 18.5594 -41.0448
rradius 91.8163
rwrist -16.6497
rhand 24.7964 -2.6698
rfingers 7.12502
rthumb 48.9742 -24.4149
lclavicle -2.38542e-014 3.49861e-014
lhumerus 20.8481 -27.4914 73.1508
lradius 118.012
lwrist -47.5041
lhand 35.8765 53.4464
lfingers 7.12502
lthumb 58.8982 68.3336
rfemur -60.9116 14.8664 9.35702
rtibia 42.0766
rfoot -2.79519 -15.0049
rtoes -8.78815
lfemur -65.7526 -18.6451 -3.26471
ltibia 65.3667
lfoot 24.9345 -8.95033
ltoes 12.0117
327
root -1.57469 16.1418 -1.13749 27.1282 -17.6632 5.1502
lowerback 35.3632 0.588737 -1.55525
upperback 5.47253 0.204998 0.958819
thorax -11.8206 0.116234 1.78292
lowerneck -10.4087 -4.33521 -8.34459
upperneck -14.9621 -3.73873 18.0184
head -2.03917 -2.0165 6.95115
rclavicle 8.66701e-014 -1.51076e-014
rhumerus 27.6062 22.4837 -41.9971
rradius 93.4562
rwrist -19.6042
rhand 37.1054 -7.16079
rfingers 7.12502
rthumb 59.9555 -20.9878
lclavicle 8.66701e-014 -1.51076e-014
lhumerus 21.0173 -24.9997 74.089
lradius 115.901
lwrist -52.905
lhand 34.4439 51.9546
lfingers 7.12502
lthumb 57.6516 67.9845
rfemur -60.3351 14.6375 9.73055
rtibia 41.812
rfoot -2.49329 -15.0148
rtoes -9.16182
lfemur -65.3631 -18.5216 -3.33405
ltibia 65.0219
lfoot 24.467 -11.0335
ltoes 4.44586
328
root -1.58859 16.167 -1.13149 26.8836 -17.0531 5.12134
lowerback 35.6871 0.426438 -1.5173
upperback 5.49 0.0557605 1.25756
thorax -11.8021 0.0497557 2.14417
lowerneck -10.3503 -4.13452 -8.02735
upperneck -15.2752 -3.50176 17.4547
head -2.20529 -1.91295 6.73238
rclavicle -2.38542e-015 -5.68524e-014
rhumerus 27.7107 23.3961 -39.6426
rradius 94.3708
rwrist -26.6363
rhand 49.474 -8.51192
rfingers 7.12502
rthumb 69.6036 -5.47136
lclavicle -2.38542e-015 -5.68524e-014
lhumerus 20.7688 -23.5365 74.7279
lradius 113.815
lwrist -59.3913
lhand 39.8343 50.9993
lfingers 7.12502
lthumb 62.2577 62.1686
rfemur -59.6128 14.4128 9.94965
rtibia 41.4077
rfoot -2.24702 -14.9996
rtoes -9.21884
lfemur -64.8767 -18.6538 -3.40092
ltibia 64.6451
lfoot 24.5214 -10.3088
ltoes 6.4937
329
root -1.6037 16.1925 -1.12704 26.8201 -16.2661 4.86477
lowerback 35.8396 0.198612 -1.17068
upperback 5.53381 -0.0524149 1.58215
thorax -11.8085 -0.00774624 2.3544
lowerneck -10.3063 -3.95863 -7.61767
upperneck -15.555 -3.31678 16.8351
head -2.35503 -1.8362 6.47614
rclavicle 1.59028e-014 -9.54166e-015
rhumerus 25.2919 25.1025 -40.996
rradius 95.8804
rwrist -29.5405
rhand 62.0143 -9.1351
rfingers 7.12502
rthumb 74.9142 30.586
lclavicle 1.59028e-014 -9.54166e-015
lhumerus 20.1071 -23.1655 74.8375
lradius 112.019
lwrist -66.2275
lhand 43.0193 48.8126
lfingers 7.12502
lthumb 64.8458 56.2441
rfemur -58.9661 14.1364 10.4153
rtibia 40.9431
rfoot -2.36355 -15.0297
rtoes -7.47964
lfemur -64.7244 -18.8052 -3.09593
ltibia 64.4066
lfoot 24.527 -9.88573
ltoes 7.94234
330
root -1.60942 16.2047 -1.13347 27.0032 -15.249 4.34293
lowerback 35.8927 -0.164414 -0.385077
upperback 5.52553 -0.15797 1.94157
thorax -11.8367 -0.0779126 2.36871
lowerneck -10.3602 -3.84965 -7.23588
upperneck -15.7894 -3.20554 16.4419
head -2.45477 -1.79671 6.29293
rclavicle -2.70347e-014 5.68524e-014
rhumerus 23.1458 25.5791 -42.4212
rradius 97.647
rwrist -32.0149
rhand 69.2131 -8.28795
rfingers 7.12502
rthumb 73.9306 57.2782
lclavicle -2.70347e-014 5.68524e-014
lhumerus 19.0517 -24.0186 74.4116
lradius 110.353
lwrist -71.2357
lhand 55.0441 44.3968
lfingers 7.12502
lthumb 72.8422 27.9354
rfemur -58.5903 13.8494 11.0669
rtibia 40.4763
rfoot -2.74907 -15.1816
rtoes -4.64513
lfemur -65.1585 -18.8501 -2.36453
ltibia 64.4071
lfoot 24.6639 -9.88214
ltoes 7.55047
331
root -1.6048 16.203 -1.14632 27.3138 -14.0032 3.90152
lowerback 35.8414 -0.755734 0.550818
upperback 5.48324 -0.480816 2.35526
thorax -11.8554 -0.248663 2.45032
lowerneck -10.3703 -3.72491 -7.20755
upperneck -16.0342 -3.01724 16.3826
head -2.55147 -1.71186 6.28212
rclavicle 1.35174e-014 -2.14687e-014
rhumerus 21.8586 25.1698 -43.4611
rradius 99.5922
rwrist -34.6729
rhand 71.7877 -9.62458
rfingers 7.12502
rthumb 72.8603 63.8057
lclavicle 1.35174e-014 -2.14687e-014
lhumerus 17.6919 -25.9999 73.5918
lradius 108.554
lwrist -72.6091
lhand 61.0744 40.8394
lfingers 7.12502
lthumb 74.7996 4.56606
rfemur -58.4484 13.3473 11.6654
rtibia 40.0928
rfoot -2.61592 -15.3637
rtoes -4.4083
lfemur -65.9778 -19.0232 -1.46667
ltibia 64.4991
lfoot 25.0909 -9.23068
ltoes 10.0566
